<svg width="966" height="966" viewBox="0 0 966 966" fill="none" xmlns="http://www.w3.org/2000/svg">
<path d="M483 30.1686C466.397 30.1686 452.813 57.2053 452.813 90.5436C452.813 106.524 456.02 121.844 461.68 133.127C452.813 133.523 444.7 135.315 435.832 137.712V167.616C468.095 163.05 500.169 163.258 530.168 167.616V137.712C521.678 135.164 512.433 133.731 504.32 133.127C509.98 121.844 513.188 106.524 513.188 90.5436C513.188 57.2053 499.603 30.1686 483 30.1686ZM162.692 162.786C150.9 174.578 160.447 203.2 184.012 226.784C195.464 238.104 208.482 246.783 220.557 250.745C214.52 257.348 209.992 264.329 205.464 272.253L226.784 293.385C245.462 268.103 268.103 245.462 293.385 226.784L272.254 205.464C264.329 209.614 257.16 215.275 250.745 220.557C246.783 208.482 238.104 195.464 226.784 184.144C211.69 172.427 180.465 145.655 162.692 162.786ZM739.216 184.106C727.896 195.464 719.217 208.482 715.255 220.557C708.652 214.52 701.671 209.992 693.747 205.464L672.615 226.784C697.897 245.462 720.538 268.103 739.216 293.385L760.536 272.253C756.386 264.329 750.725 257.16 745.443 250.745C757.329 246.594 770.347 238.104 781.668 226.784C805.252 203.2 814.874 174.54 802.988 162.767C784.309 147.919 750.159 173.371 739.216 184.106ZM470.736 198.294C401.305 201.313 338.289 229.048 290.366 273.008C284.14 278.857 277.914 284.894 273.008 290.366C229.048 338.289 201.313 401.305 198.294 470.925C198.294 479.415 197.917 488.094 198.483 495.452C201.313 564.884 229.048 627.9 273.008 675.823C278.857 681.86 285.083 688.086 290.366 693.18C338.289 736.952 401.305 764.687 470.736 767.706H471.114C478.849 768.083 487.528 767.706 495.264 767.706C564.695 764.687 627.711 736.952 675.634 692.992C681.86 687.143 688.086 681.105 692.992 675.634C736.952 627.711 764.687 564.695 767.706 495.264V494.886C768.083 486.962 767.706 478.472 767.706 470.736C764.687 401.305 736.952 338.289 692.992 290.366C687.143 284.14 681.106 277.914 675.634 273.008C627.711 229.048 564.695 201.313 495.264 198.294C486.773 197.917 478.095 198.294 470.736 198.294ZM483 218.482C491.302 218.482 498.094 225.274 498.094 233.576C498.094 241.877 491.302 248.669 483 248.669C474.698 248.669 467.906 241.877 467.906 233.576C467.906 225.274 474.698 218.482 483 218.482ZM496.018 272.065C544.507 275.084 588.656 294.328 622.995 324.704C629.409 330.553 635.636 336.591 641.296 343.005C671.672 377.344 690.916 421.493 693.935 470.17C694.69 478.849 693.935 487.528 693.935 496.018C690.916 544.507 671.672 588.656 641.296 622.995C635.447 629.409 629.409 635.636 622.995 641.296C588.656 671.672 544.507 690.916 495.83 693.935C487.151 694.124 478.472 694.69 469.982 693.935C421.493 690.916 377.344 671.672 343.194 641.296H343.006C336.591 635.636 330.553 629.409 324.893 622.995C294.517 588.845 275.084 544.696 272.065 496.018C271.876 487.339 271.31 478.849 272.065 470.359C273.008 421.682 297.158 375.08 324.704 343.005C330.553 336.591 336.591 330.364 343.006 324.704C377.344 294.328 421.493 275.084 470.17 272.065C478.849 271.31 487.528 272.065 496.018 272.065ZM317.157 295.837C323.006 301.686 323.006 311.309 317.157 317.157C311.309 323.006 301.686 323.006 295.838 317.157C289.989 311.309 289.989 301.686 295.838 295.837C302.441 290.366 311.309 290.366 317.157 295.837ZM670.163 295.837C676.011 301.686 676.011 311.309 670.163 317.157C664.314 323.006 654.691 323.006 648.843 317.157C642.994 311.309 642.994 301.686 648.843 295.837C655.446 290.366 664.314 290.366 670.163 295.837ZM452.813 308.101V324.516C457.529 330.553 461.114 334.893 467.529 337.345C466.208 360.741 464.51 384.702 462.246 408.475C476.208 404.89 490.924 404.701 503.943 408.663C501.679 384.702 499.792 360.741 498.471 337.157C513.376 333.194 513.188 320.931 513.188 308.101C492.434 304.894 472.057 305.082 452.813 308.101ZM380.551 337.911C364.137 349.609 349.609 364.137 337.911 380.551L349.609 392.249C357.156 393.192 362.816 393.758 369.042 390.928C384.702 408.475 400.362 426.587 415.644 445.077C422.625 432.813 432.813 422.625 445.266 415.644C426.587 400.362 408.475 384.702 390.928 369.042C394.324 363.193 393.381 356.401 392.249 349.609L380.551 337.911ZM585.449 337.911L573.751 349.609C572.431 357.156 572.242 362.627 574.883 369.042C557.525 384.702 539.224 400.362 520.734 415.644C532.998 422.625 543.186 432.813 550.167 445.266C565.45 426.587 581.298 408.475 596.769 390.928C602.807 394.135 609.41 393.381 616.202 392.249L627.9 380.551C616.202 364.137 601.863 349.609 585.449 337.911ZM798.271 435.832C802.988 468.095 802.61 500.169 798.271 530.168H828.27C831.1 521.678 832.043 512.433 832.609 504.32C843.929 509.98 859.4 513.187 875.438 513.187C908.832 513.187 935.813 499.603 935.813 483C935.813 466.397 908.832 452.812 875.438 452.812C859.4 452.812 843.929 456.02 832.609 461.68C832.42 452.812 830.722 444.7 828.27 435.832H798.271ZM137.787 436.021C135.24 444.511 133.806 453.378 133.259 461.68C121.901 456.02 106.562 453.001 90.6191 453.001C57.2808 453.001 30.2441 466.585 30.2441 483.189C30.2441 499.792 57.2808 513.376 90.6191 513.376C106.619 513.376 121.958 510.169 133.259 504.509C133.542 513.376 135.372 521.489 137.787 530.357H167.597C163.107 498.094 162.88 466.019 167.597 436.021H137.787ZM483 439.605C458.661 439.605 439.606 458.85 439.606 483C439.606 507.15 458.661 526.394 483 526.394C507.15 526.394 526.395 507.15 526.395 483C526.395 458.85 507.15 439.605 483 439.605ZM641.484 452.812C635.447 457.529 631.107 461.114 628.655 467.529C605.259 466.208 581.298 464.51 557.525 462.246C561.11 476.396 561.11 490.924 557.525 503.943C581.298 501.678 605.071 499.792 628.655 498.471C630.541 505.075 635.824 509.225 641.484 513.187H657.899C661.106 492.434 660.918 472.057 657.899 452.812H641.484ZM308.101 453.001C304.894 473.566 305.271 494.132 308.101 513.376H324.516C330.364 508.659 335.081 505.263 337.157 498.66C360.741 499.792 384.513 501.678 408.475 503.943C404.701 489.792 404.701 475.264 408.286 462.246C384.513 464.51 360.552 466.208 337.157 467.529C335.459 460.925 329.987 456.775 324.516 453.001H308.101ZM732.424 467.906C740.726 467.906 747.518 474.698 747.518 483C747.518 491.301 740.726 498.094 732.424 498.094C724.123 498.094 717.331 491.301 717.331 483C717.331 474.698 724.123 467.906 732.424 467.906ZM233.576 468.095C241.877 468.095 248.67 474.887 248.67 483.189C248.67 491.49 241.877 498.282 233.576 498.282C225.274 498.282 218.482 491.49 218.482 483.189C218.482 474.887 225.274 468.095 233.576 468.095ZM550.356 520.923C543.375 533.187 533.187 543.375 520.734 550.356C539.413 565.638 557.525 581.298 575.072 596.958C571.676 602.807 572.619 609.599 573.751 616.391L585.449 628.089C601.863 616.391 616.391 601.863 628.089 585.449L616.391 573.751C608.844 572.808 603.184 572.242 596.958 575.072C581.298 557.525 565.638 539.413 550.356 520.923ZM415.644 520.923C400.362 539.413 384.702 557.525 369.042 575.072C363.193 571.676 356.401 572.619 349.798 573.751L337.911 585.449C349.609 602.052 364.137 616.58 380.74 628.089L392.438 616.391C393.381 608.844 393.947 603.184 391.117 596.958C408.663 581.298 426.776 565.638 445.266 550.356C433.002 543.375 422.625 533.187 415.644 520.923ZM462.057 557.337C464.322 581.298 466.208 605.259 467.529 628.843C460.925 630.353 456.586 636.013 452.813 641.484V657.899C473.566 661.106 493.943 660.918 513.188 657.899V641.484C508.471 635.447 504.886 631.107 498.471 628.655C499.792 605.259 501.49 581.298 503.754 557.525C489.226 559.978 473.944 560.733 462.057 557.337ZM317.346 648.843C323.195 654.691 323.195 664.314 317.346 670.162C311.497 676.011 301.875 676.011 296.026 670.162C290.177 664.314 290.177 654.691 296.026 648.843C302.63 643.182 311.497 643.182 317.346 648.843ZM670.163 648.843C676.011 654.691 676.011 664.314 670.163 670.162C664.314 676.011 654.691 676.011 648.843 670.162C642.994 664.314 642.994 654.691 648.843 648.843C655.446 643.182 664.502 643.182 670.163 648.843ZM739.216 672.615C720.538 697.897 697.897 720.538 672.615 739.216L693.747 760.536C701.671 756.386 708.84 750.725 715.255 745.443C719.217 757.518 727.896 770.536 739.216 781.856C762.8 805.44 791.29 814.874 803.176 803.176C814.874 791.29 805.44 762.8 781.856 739.216C770.536 727.896 757.518 719.217 745.443 715.255C751.48 708.652 756.008 701.671 760.536 693.746L739.216 672.615ZM226.784 672.615L205.652 693.746C209.992 701.482 215.275 709.218 220.746 715.255C208.671 719.217 195.653 727.896 184.2 739.216C160.673 762.8 151.145 791.29 162.88 803.176C174.654 815.062 203.388 805.44 226.972 781.856C238.293 770.536 246.972 757.518 250.934 745.443C257.537 751.48 264.518 756.008 272.442 760.536L293.573 739.405C268.103 720.538 245.651 698.086 226.784 672.615ZM483 717.33C491.302 717.33 498.094 724.123 498.094 732.424C498.094 740.726 491.302 747.518 483 747.518C474.698 747.518 467.906 740.726 467.906 732.424C467.906 724.123 474.698 717.33 483 717.33ZM435.832 798.459V828.269C444.322 830.911 453.567 832.232 461.68 832.798C456.02 844.118 452.813 859.4 452.813 875.437C452.813 908.832 466.397 935.812 483 935.812C499.603 935.812 513.188 908.832 513.188 875.437C513.188 859.4 509.98 844.118 504.32 832.798C513.188 832.42 521.3 830.722 530.168 828.269V798.271C497.905 802.987 465.831 802.799 435.832 798.459Z" fill="#DBDFAC"/>
</svg>
