<svg width="57" height="57" viewBox="0 0 57 57" fill="none" xmlns="http://www.w3.org/2000/svg">
<path d="M11.875 52.25C10.5688 52.25 9.45012 51.7853 8.51912 50.8559C7.58971 49.9249 7.125 48.8063 7.125 47.5V14.25H11.875V47.5H38V52.25H11.875ZM21.375 42.75C20.0688 42.75 18.9509 42.2853 18.0215 41.3559C17.0905 40.4249 16.625 39.3063 16.625 38V9.5C16.625 8.19375 17.0905 7.07512 18.0215 6.14412C18.9509 5.21471 20.0688 4.75 21.375 4.75H42.75C44.0563 4.75 45.1749 5.21471 46.1059 6.14412C47.0353 7.07512 47.5 8.19375 47.5 9.5V38C47.5 39.3063 47.0353 40.4249 46.1059 41.3559C45.1749 42.2853 44.0563 42.75 42.75 42.75H21.375ZM21.375 38H42.75V9.5H21.375V38Z" fill="#DBDFAC"/>
</svg>
